<svg
  xmlns="http://www.w3.org/2000/svg"
  viewBox="0 0 114.29 100"
>
  <!-- Shield -->
  <path
    fill="#0D47A1"
    fill-rule="evenodd"
    clip-rule="evenodd"
    d="M17.5549 0H96.7276C107.568 0 115.817 9.41092 114.045 19.7522L104.047 77.8593C101.849 90.6338 95.0271 100 81.6327 100H32.6531C19.2587 100 12.4331 90.6338 10.2354 77.8593L0.241674 19.7522C-1.53499 9.41092 6.70985 0 17.5549 0Z"
  />

  <!-- Keyhole -->
  <path
    fill="#FFFFFF"
    d="M57.1366 16.3439
       C45.0238 16.3439 35.2013 25.8353 35.2013 37.5498
       C35.2013 45.5338 40.8779 52.4802 47.6191 56.0988
       V77.081
       C47.6191 80.1896 49.1046 81.8182 52.3202 81.8182
       H61.6384
       C64.854 81.8182 66.6667 80.1896 66.6667 77.081
       V56.2687
       C73.5791 52.6994 79.0766 45.6546 79.0719 37.5498
       C79.0719 25.8398 69.254 16.3439 57.1366 16.3439
       Z"
  />
</svg>
